<svg width="106" height="101" viewBox="0 0 106 101" fill="none" xmlns="http://www.w3.org/2000/svg">
<path d="M44.7663 88.1618C44.2921 91.3508 41.7927 94.2165 37.5601 96.1092C33.3524 97.9908 27.6878 98.7655 21.5882 97.8586C15.4887 96.9518 10.2945 94.5626 6.81616 91.5383C3.31726 88.496 1.75964 85.0272 2.23377 81.8382C2.70791 78.6492 5.20731 75.7835 9.43994 73.8908C13.6476 72.0092 19.3123 71.2345 25.4118 72.1413C31.5113 73.0482 36.7056 75.4373 40.1839 78.4617C43.6828 81.5039 45.2404 84.9728 44.7663 88.1618Z" fill="#D9D9D9" stroke="black" stroke-width="4"/>
<circle cx="50" cy="50" r="48.5" fill="#CADB65" stroke="black" stroke-width="3"/>
<path d="M34.5103 55.8647C27.5064 55.8647 27.0061 63 34.5103 63C43.5153 63 43.5153 55.8647 34.5103 55.8647Z" fill="#C65B5B"/>
<path d="M22 34.5C20.2963 34.8973 17.53 23.8829 29 19.388C46.6134 16.7368 60.9366 28.1478 56.0222 39.1122C53.9068 43.8317 43.1503 47.9229 34.5103 51.5214M34.5103 55.8647C27.5064 55.8647 27.0061 63 34.5103 63C43.5153 63 43.5153 55.8647 34.5103 55.8647Z" stroke="black" stroke-width="3"/>
<path d="M103.659 81.1838C104.231 84.3567 102.781 87.8719 99.3776 91.0206C95.9942 94.1508 90.8762 96.699 84.8075 97.7936C78.7388 98.8882 73.053 98.2886 68.7893 96.5376C64.5003 94.7763 61.9137 91.9891 61.3414 88.8162C60.7691 85.6434 62.219 82.1281 65.6224 78.9794C69.0058 75.8492 74.1239 73.301 80.1925 72.2064C86.2612 71.1119 91.947 71.7115 96.2108 73.4624C100.5 75.2237 103.086 78.0109 103.659 81.1838Z" fill="#D9D9D9" stroke="black" stroke-width="4"/>
</svg>
