<svg width="38" height="37" viewBox="0 0 38 37" fill="none" xmlns="http://www.w3.org/2000/svg">
<g opacity="0.5">
<path d="M19.1681 23.7479C19.7861 23.7451 20.2937 24.2353 20.3125 24.8531L20.4434 32.3519C20.4543 32.9731 19.9595 33.4855 19.3382 33.4964C18.717 33.5072 18.2046 33.0124 18.1938 32.3912L18.0629 24.8923C18.0602 24.2743 18.5504 23.7667 19.1681 23.7479Z" fill="black"/>
<path d="M18.8016 2.75105C19.4196 2.74835 19.9272 3.23854 19.946 3.85625L20.0769 11.3551C20.0878 11.9763 19.593 12.4887 18.9717 12.4996C18.3505 12.5104 17.8381 12.0156 17.8273 11.3944L17.6964 3.89552C17.6937 3.27753 18.1839 2.76992 18.8016 2.75105Z" fill="black"/>
<path d="M23.0163 22.4655C23.3863 22.4563 23.7371 22.6297 23.9545 22.9292L28.3509 28.9884C28.5295 29.2295 28.6044 29.532 28.5589 29.8287C28.5133 30.1253 28.3512 30.3914 28.1085 30.5679C27.6147 30.8798 26.9649 30.7681 26.6037 30.3091L22.1773 24.2504C21.9197 23.9146 21.8754 23.4616 22.0632 23.0823C22.2509 22.703 22.638 22.4634 23.0613 22.4647L23.0163 22.4655Z" fill="black"/>
<path d="M10.6728 5.47334C11.0428 5.46417 11.3936 5.63755 11.6111 5.93703L15.9625 11.997C16.3276 12.5002 16.2156 13.2041 15.7124 13.5691C15.2092 13.9342 14.5054 13.8222 14.1403 13.319L9.74389 7.25982C9.48625 6.92404 9.44197 6.47097 9.62974 6.09167C9.8175 5.71237 10.2046 5.47285 10.6279 5.47412L10.6728 5.47334Z" fill="black"/>
<path d="M25.4346 19.1978C25.5634 19.1748 25.695 19.1725 25.8246 19.191L32.9043 21.6928C33.1985 21.7918 33.4397 22.0066 33.572 22.2874C33.7043 22.5682 33.7164 22.8909 33.6054 23.1808C33.5107 23.4778 33.2956 23.7214 33.0125 23.8519C32.7294 23.9824 32.4044 23.9878 32.1171 23.8669L25.1276 21.3785C24.6207 21.1937 24.3163 20.675 24.4023 20.1423C24.4882 19.6096 24.9403 19.213 25.4796 19.197L25.4346 19.1978Z" fill="black"/>
<path d="M5.57224 12.3584C5.70554 12.3592 5.83777 12.3823 5.96349 12.4266L13.0122 14.8689C13.3091 14.9643 13.5531 15.1785 13.686 15.4606C13.8189 15.7427 13.8288 16.0673 13.7133 16.3569C13.6142 16.6512 13.3995 16.8923 13.1187 17.0246C12.8379 17.1569 12.5152 17.169 12.2253 17.058L5.14658 14.6162C4.85235 14.5172 4.61122 14.3024 4.4789 14.0216C4.34659 13.7408 4.33453 13.4181 4.4455 13.1282C4.60483 12.6471 5.06615 12.3319 5.57224 12.3584Z" fill="black"/>
<path d="M32.7538 13.0691C33.3301 13.0445 33.8316 13.4597 33.915 14.0304C33.9985 14.6011 33.6367 15.1425 33.0775 15.2838L25.8674 17.345C25.5803 17.4279 25.2721 17.3932 25.0107 17.2486C24.7492 17.104 24.556 16.8614 24.4737 16.5742C24.3097 15.9774 24.6519 15.3588 25.2445 15.1805L32.4846 13.1188C32.5717 13.0904 32.6622 13.0737 32.7538 13.0691Z" fill="black"/>
<path d="M12.5566 18.8525C13.0689 18.8457 13.5227 19.1815 13.6661 19.6733C13.749 19.9603 13.7144 20.2685 13.5698 20.53C13.4252 20.7914 13.1825 20.9846 12.8953 21.0669L5.65522 23.1286C5.05752 23.3006 4.43355 22.9555 4.26155 22.3578C4.08955 21.7601 4.43465 21.1361 5.03235 20.9641L12.2425 18.903C12.3436 18.8685 12.4498 18.8514 12.5566 18.8525Z" fill="black"/>
<path d="M28.0241 5.96559C28.4588 5.96163 28.857 6.20855 29.0466 6.59978C29.2363 6.99101 29.1836 7.45652 28.9112 7.79539L24.1956 13.5336C23.795 14.0034 23.0958 14.075 22.6082 13.6963C22.3753 13.5079 22.2272 13.2344 22.1967 12.9364C22.1661 12.6385 22.2557 12.3406 22.4454 12.1089L27.1605 6.34072C27.3784 6.09373 27.6948 5.9563 28.0241 5.96559Z" fill="black"/>
<path d="M14.8062 22.2488C15.0692 22.2386 15.3267 22.3248 15.5306 22.4911C15.7634 22.6796 15.9116 22.953 15.9421 23.251C15.9726 23.549 15.8831 23.8468 15.6933 24.0785L10.9793 29.9067C10.7909 30.1396 10.5174 30.2877 10.2195 30.3182C9.92149 30.3488 9.62364 30.2592 9.39192 30.0694C8.956 29.6887 8.88585 29.0368 9.23076 28.572L13.9442 22.7139C14.1484 22.4386 14.4641 22.2682 14.8062 22.2488Z" fill="black"/>
<path d="M19.1681 23.7479C19.7861 23.7451 20.2937 24.2353 20.3125 24.8531L20.4434 32.3519C20.4543 32.9731 19.9595 33.4855 19.3382 33.4964C18.717 33.5072 18.2046 33.0124 18.1938 32.3912L18.0629 24.8923C18.0602 24.2743 18.5504 23.7667 19.1681 23.7479Z" fill="black"/>
<path d="M18.8016 2.75105C19.4196 2.74835 19.9272 3.23854 19.946 3.85625L20.0769 11.3551C20.0878 11.9763 19.593 12.4887 18.9717 12.4996C18.3505 12.5104 17.8381 12.0156 17.8273 11.3944L17.6964 3.89552C17.6937 3.27753 18.1839 2.76992 18.8016 2.75105Z" fill="black"/>
<path d="M23.0163 22.4655C23.3863 22.4563 23.7371 22.6297 23.9545 22.9292L28.3509 28.9884C28.5295 29.2295 28.6044 29.532 28.5589 29.8287C28.5133 30.1253 28.3512 30.3914 28.1085 30.5679C27.6147 30.8798 26.9649 30.7681 26.6037 30.3091L22.1773 24.2504C21.9197 23.9146 21.8754 23.4616 22.0632 23.0823C22.2509 22.703 22.638 22.4634 23.0613 22.4647L23.0163 22.4655Z" fill="black"/>
<path d="M10.6728 5.47334C11.0428 5.46417 11.3936 5.63755 11.6111 5.93703L15.9625 11.997C16.3276 12.5002 16.2156 13.2041 15.7124 13.5691C15.2092 13.9342 14.5054 13.8222 14.1403 13.319L9.74389 7.25982C9.48625 6.92404 9.44197 6.47097 9.62974 6.09167C9.8175 5.71237 10.2046 5.47285 10.6279 5.47412L10.6728 5.47334Z" fill="black"/>
<path d="M25.4346 19.1978C25.5634 19.1748 25.695 19.1725 25.8246 19.191L32.9043 21.6928C33.1985 21.7918 33.4397 22.0066 33.572 22.2874C33.7043 22.5682 33.7164 22.8909 33.6054 23.1808C33.5107 23.4778 33.2956 23.7214 33.0125 23.8519C32.7294 23.9824 32.4044 23.9878 32.1171 23.8669L25.1276 21.3785C24.6207 21.1937 24.3163 20.675 24.4023 20.1423C24.4882 19.6096 24.9403 19.213 25.4796 19.197L25.4346 19.1978Z" fill="black"/>
<path d="M5.57224 12.3584C5.70554 12.3592 5.83777 12.3823 5.96349 12.4266L13.0122 14.8689C13.3091 14.9643 13.5531 15.1785 13.686 15.4606C13.8189 15.7427 13.8288 16.0673 13.7133 16.3569C13.6142 16.6512 13.3995 16.8923 13.1187 17.0246C12.8379 17.1569 12.5152 17.169 12.2253 17.058L5.14658 14.6162C4.85235 14.5172 4.61122 14.3024 4.4789 14.0216C4.34659 13.7408 4.33453 13.4181 4.4455 13.1282C4.60483 12.6471 5.06615 12.3319 5.57224 12.3584Z" fill="black"/>
<path d="M32.7538 13.0691C33.3301 13.0445 33.8316 13.4597 33.915 14.0304C33.9985 14.6011 33.6367 15.1425 33.0775 15.2838L25.8674 17.345C25.5803 17.4279 25.2721 17.3932 25.0107 17.2486C24.7492 17.104 24.556 16.8614 24.4737 16.5742C24.3097 15.9774 24.6519 15.3588 25.2445 15.1805L32.4846 13.1188C32.5717 13.0904 32.6622 13.0737 32.7538 13.0691Z" fill="black"/>
<path d="M12.5566 18.8525C13.0689 18.8457 13.5227 19.1815 13.6661 19.6733C13.749 19.9603 13.7144 20.2685 13.5698 20.53C13.4252 20.7914 13.1825 20.9846 12.8953 21.0669L5.65522 23.1286C5.05752 23.3006 4.43355 22.9555 4.26155 22.3578C4.08955 21.7601 4.43465 21.1361 5.03235 20.9641L12.2425 18.903C12.3436 18.8685 12.4498 18.8514 12.5566 18.8525Z" fill="black"/>
<path d="M28.0241 5.96559C28.4588 5.96163 28.857 6.20855 29.0466 6.59978C29.2363 6.99101 29.1836 7.45652 28.9112 7.79539L24.1956 13.5336C23.795 14.0034 23.0958 14.075 22.6082 13.6963C22.3753 13.5079 22.2272 13.2344 22.1967 12.9364C22.1661 12.6385 22.2557 12.3406 22.4454 12.1089L27.1605 6.34072C27.3784 6.09373 27.6948 5.9563 28.0241 5.96559Z" fill="black"/>
<path d="M14.8062 22.2488C15.0692 22.2386 15.3267 22.3248 15.5306 22.4911C15.7634 22.6796 15.9116 22.953 15.9421 23.251C15.9726 23.549 15.8831 23.8468 15.6933 24.0785L10.9793 29.9067C10.7909 30.1396 10.5174 30.2877 10.2195 30.3182C9.92149 30.3488 9.62364 30.2592 9.39192 30.0694C8.956 29.6887 8.88585 29.0368 9.23076 28.572L13.9442 22.7139C14.1484 22.4386 14.4641 22.2682 14.8062 22.2488Z" fill="black"/>
</g>
</svg>
