<svg width="113" height="107" viewBox="0 0 113 107" fill="none" xmlns="http://www.w3.org/2000/svg">
<path d="M11.9123 81.5C6.29352 73.4147 3 63.592 3 53C3 25.3858 25.3858 3 53 3C80.6142 3 103 25.3858 103 53C103 80.6142 80.6142 103 53 103C47.0313 103 41.3069 101.954 36 100.036" stroke="black" stroke-width="5"/>
<path d="M98 73.8342C103.835 75.5735 108.02 79.1361 108.867 83.8288C110.337 91.9816 101.175 100.458 88.4023 102.762C80.9216 104.111 73.8615 103.044 69 100.29" stroke="black" stroke-width="6"/>
<path d="M46.7771 91.0147C46.3705 93.7497 44.198 96.387 40.1519 98.1963C36.1431 99.989 30.6752 100.753 24.7353 99.8695C18.7954 98.9864 13.7861 96.665 10.4723 93.7837C7.12757 90.8755 5.81627 87.7202 6.2229 84.9852C6.62953 82.2503 8.80204 79.613 12.8482 77.8036C16.8569 76.011 22.3248 75.2473 28.2647 76.1305C34.2046 77.0136 39.2139 79.335 42.5277 82.2163C45.8725 85.1245 47.1838 88.2797 46.7771 91.0147Z" fill="#D9D9D9" stroke="black" stroke-width="6"/>
<circle cx="53" cy="53" r="48.5" fill="#CADB65" stroke="black" stroke-width="3"/>
<g filter="url(#filter0_d_653_37943)">
<path d="M59.8398 67.3101C53.0575 69.0577 54.3533 76.0922 61.6202 74.2198C70.3404 71.973 68.56 65.0633 59.8398 67.3101Z" fill="#C65B5B"/>
<path d="M42.3945 49.7426C40.8438 50.5524 35.4169 40.5766 45.4025 33.3621C61.7974 26.4 78.5148 33.8763 76.4915 45.72C75.6206 50.8181 66.225 57.4638 58.7562 63.1043M59.8398 67.3101C53.0575 69.0577 54.3533 76.0922 61.6202 74.2198C70.3404 71.973 68.56 65.0633 59.8398 67.3101Z" stroke="black" stroke-width="3"/>
</g>
<path d="M107.39 84.0951C108.003 87.4938 106.435 91.1696 102.957 94.3876C99.4936 97.5918 94.2841 100.177 88.136 101.286C81.9879 102.395 76.2036 101.792 71.8391 100C67.4556 98.2 64.7021 95.3037 64.0891 91.905C63.4761 88.5062 65.0442 84.8305 68.5226 81.6124C71.986 78.4082 77.1955 75.8233 83.3435 74.7144C89.4916 73.6055 95.2759 74.2076 99.6404 75.9999C104.024 77.8 106.777 80.6963 107.39 84.0951Z" fill="#D9D9D9" stroke="black" stroke-width="3"/>
<defs>
<filter id="filter0_d_653_37943" x="29.0273" y="29.1815" width="49.1333" height="54.8524" filterUnits="userSpaceOnUse" color-interpolation-filters="sRGB">
<feFlood flood-opacity="0" result="BackgroundImageFix"/>
<feColorMatrix in="SourceAlpha" type="matrix" values="0 0 0 0 0 0 0 0 0 0 0 0 0 0 0 0 0 0 127 0" result="hardAlpha"/>
<feOffset dx="-5" dy="4"/>
<feGaussianBlur stdDeviation="2"/>
<feComposite in2="hardAlpha" operator="out"/>
<feColorMatrix type="matrix" values="0 0 0 0 0 0 0 0 0 0 0 0 0 0 0 0 0 0 0.25 0"/>
<feBlend mode="normal" in2="BackgroundImageFix" result="effect1_dropShadow_653_37943"/>
<feBlend mode="normal" in="SourceGraphic" in2="effect1_dropShadow_653_37943" result="shape"/>
</filter>
</defs>
</svg>
